<?xml version="1.0" encoding="utf-8"?>
<!-- Generator: Adobe Illustrator 22.0.0, SVG Export Plug-In . SVG Version: 6.00 Build 0)  -->
<svg version="1.0" id="Lager_1" xmlns="http://www.w3.org/2000/svg" xmlns:xlink="http://www.w3.org/1999/xlink" x="0px" y="0px"
	 viewBox="0 0 425.2 425.2" style="enable-background:new 0 0 425.2 425.2;" xml:space="preserve">
<style type="text/css">
	.st0{fill:#FCC449;}
	.st1{fill:#F4F4F4;}
	.st2{fill:#FFE99D;}
	.st3{fill:#F79F23;}
</style>
<g>
	<path class="st0" d="M330.7,212.6c0,18.7-4.4,36.5-12.2,52.2l80.6,46.5c2.9-5.4,5.5-10.9,7.9-16.6c11-26.1,16.6-53.7,16.6-82.2
		c0-28.4-5.6-56.1-16.6-82.2c-2.4-5.7-5-11.2-7.9-16.6l-80.6,46.5C326.3,176.1,330.7,193.8,330.7,212.6z"/>
	<path class="st1" d="M94.5,212.6c0-18.7,4.4-36.5,12.2-52.2l-80.6-46.5c-2.9,5.4-5.5,10.9-7.9,16.6c-11,26.1-16.6,53.7-16.6,82.2
		c0,28.4,5.6,56.1,16.6,82.2c2.4,5.7,5,11.2,7.9,16.6l80.6-46.5C98.9,249.1,94.5,231.3,94.5,212.6z"/>
	<path class="st2" d="M220.3,94.8c37.7,2.4,70.6,22.6,90.4,52.2l80.6-46.5c-8.4-13.4-18.3-25.8-29.6-37.1
		c-19.3-19.3-41.9-34.6-67-45.2c-23.7-10-48.7-15.5-74.4-16.5V94.8z"/>
	<path class="st3" d="M310.8,278.2c-19.8,29.6-52.7,49.8-90.4,52.2v93c25.7-0.9,50.7-6.4,74.4-16.5c25.1-10.6,47.7-25.8,67-45.2
		c11.3-11.3,21.2-23.7,29.6-37.1L310.8,278.2z"/>
	<path class="st1" d="M204.9,330.4c-37.7-2.4-70.6-22.6-90.4-52.2l-80.6,46.5c8.4,13.4,18.3,25.8,29.6,37.1
		c19.3,19.3,41.9,34.6,67,45.2c23.7,10,48.7,15.5,74.4,16.5V330.4z"/>
	<path class="st1" d="M114.4,147c19.8-29.6,52.7-49.8,90.4-52.2v-93c-25.7,0.9-50.7,6.4-74.4,16.5c-25.1,10.6-47.7,25.8-67,45.2
		c-11.3,11.3-21.2,23.7-29.6,37.1L114.4,147z"/>
</g>
</svg>
