<svg xmlns="http://www.w3.org/2000/svg" width="50" height="50" viewBox="0 0 50 50">
<defs>
    <style>
      .cls-1 {
        fill: #f59e20;
        fill-rule: evenodd;
      }
    </style>
  </defs>
  <path id="Al" class="cls-1" d="M37.812,19.625L25.952,0.375a0.437,0.437,0,0,1-.125-0.25L25.7,0H24.953a0.122,0.122,0,0,0-.125.125,0.437,0.437,0,0,0-.125.25L12.22,19.625a15.1,15.1,0,0,0,2.122,18.5A14.613,14.613,0,0,0,23.83,42.5v6.375a1.124,1.124,0,1,0,2.247,0V42.5a14.342,14.342,0,0,0,9.488-4.375,14.956,14.956,0,0,0,2.247-18.5M26.077,4.875l5.368,8.75H31.32l-5.243,6.75V4.875Zm-2.122,15.5-5.493-6.5,5.493-9v15.5Zm0,3.375v8.125l-9.737-11.25,3-4.875Zm2.122,0.125L32.568,15.5l3.121,5.25L25.952,32V23.875h0.125ZM15.965,36.75a12.735,12.735,0,0,1-2.746-14l10.861,12.5v5.125a12.533,12.533,0,0,1-8.114-3.625m18.1,0a12.94,12.94,0,0,1-7.99,3.75v-5L36.938,22.875A12.847,12.847,0,0,1,34.066,36.75"/>
</svg>
