<svg xmlns="http://www.w3.org/2000/svg" width="50" height="50" viewBox="0 0 50 50">
<defs>
    <style>
      .cls-1 {
        fill: #ffe899;
        fill-rule: evenodd;
      }
    </style>
  </defs>
  <path id="Alm" class="cls-1" d="M40.99,25.974A28.9,28.9,0,0,0,38.6,14.77a33.238,33.238,0,0,0-5.287-8.092,34.411,34.411,0,0,0-7.8-6.6A1.4,1.4,0,0,0,24.5.08a37.7,37.7,0,0,0-7.8,6.6,29.927,29.927,0,0,0-5.287,8.092,26.787,26.787,0,0,0-2.392,11.2A16.213,16.213,0,0,0,24,42.033V49a1.007,1.007,0,0,0,2.014,0V42.033A16.213,16.213,0,0,0,40.99,25.974M11.283,28.588L22.36,39.668a13.719,13.719,0,0,1-11.077-11.08M24,38.548L11.031,25.476A27.08,27.08,0,0,1,11.66,20L24,32.323v6.224h0Zm0-8.963L12.29,18.007l-0.126-.124a31.214,31.214,0,0,1,1.888-4.233l9.819,9.71v6.224H24ZM24,20.5l-8.686-8.714A31.84,31.84,0,0,1,17.954,8.3L24,14.272V20.5Zm0-8.963L19.213,6.8A28.791,28.791,0,0,1,24,2.819v8.714Zm2.014-8.839a44.866,44.866,0,0,1,4.783,3.984l-4.783,4.731V2.695Zm0,11.578L32.053,8.3A31.827,31.827,0,0,1,34.7,11.782L25.885,20.5V14.272h0.126Zm0,9.088,9.818-9.71a31.178,31.178,0,0,1,1.888,4.233l-0.126.124L26.011,29.584V23.36Zm1.636,16.308,11.077-11.08a13.874,13.874,0,0,1-11.077,11.08m-1.636-1.12V32.323L38.347,20a26.1,26.1,0,0,1,.629,5.477Z"/>
</svg>
