<?xml version="1.0" encoding="utf-8"?>
<!-- Generator: Adobe Illustrator 23.0.2, SVG Export Plug-In . SVG Version: 6.00 Build 0)  -->
<svg version="1.1" id="Lager_1" xmlns="http://www.w3.org/2000/svg" xmlns:xlink="http://www.w3.org/1999/xlink" x="0px" y="0px"
	 viewBox="0 0 50 50" style="enable-background:new 0 0 50 50;" xml:space="preserve">
<style type="text/css">
	.st0{fill:none;stroke:#1D1D1B;stroke-width:15;stroke-linecap:round;stroke-miterlimit:10;}
	.st1{fill:#E64011;}
	.st2{fill:#E64011;stroke:#1D1D1B;stroke-width:3;stroke-linecap:round;stroke-miterlimit:10;}
</style>
<path class="st0" d="M0.5-9"/>
<g>
	<path class="st1" d="M26.8,50c-0.6,0-1.1-0.5-1.1-1.1V4.2c0-0.6,0.5-1.1,1.1-1.1c0.6,0,1.1,0.5,1.1,1.1v44.6
		C28,49.5,27.5,50,26.8,50z"/>
	<path class="st2" d="M17,31.5"/>
	<g>
		<path class="st1" d="M26.4,43.6c-0.2,0-0.4-0.1-0.6-0.3L12.4,29.6c-0.3-0.3-0.3-0.9,0-1.2c0.3-0.3,0.9-0.3,1.2,0L27,42.2
			c0.3,0.3,0.3,0.9,0,1.2C26.9,43.6,26.6,43.6,26.4,43.6z"/>
		<path class="st1" d="M21.7,38.2c-0.3,0-0.6-0.3-0.6-0.6v-4c0-0.3,0.3-0.6,0.6-0.6s0.6,0.3,0.6,0.6v4C22.3,38,22,38.2,21.7,38.2z"
			/>
		<path class="st1" d="M21.7,38.6h-3.9c-0.3,0-0.6-0.3-0.6-0.6c0-0.3,0.3-0.6,0.6-0.6h3.9c0.3,0,0.6,0.3,0.6,0.6
			C22.3,38.3,22,38.6,21.7,38.6z"/>
		<path class="st1" d="M17.3,33.7c-0.2,0-0.4-0.2-0.4-0.4v-2.6c0-0.2,0.2-0.4,0.4-0.4c0.2,0,0.4,0.2,0.4,0.4v2.6
			C17.7,33.5,17.5,33.7,17.3,33.7z"/>
		<path class="st1" d="M17.5,33.7h-3.1c-0.2,0-0.4-0.2-0.4-0.4s0.2-0.4,0.4-0.4h3.1c0.2,0,0.4,0.2,0.4,0.4S17.7,33.7,17.5,33.7z"/>
	</g>
	<g>
		<path class="st1" d="M26.8,47.4c-0.2,0-0.3,0-0.5-0.1c-0.4-0.3-0.5-0.8-0.2-1.2l10.6-15.7c0.3-0.4,0.8-0.5,1.2-0.2
			c0.4,0.3,0.5,0.8,0.2,1.2L27.5,47C27.3,47.3,27,47.4,26.8,47.4z"/>
		<path class="st2" d="M34.7,40.2"/>
		<path class="st1" d="M30.8,41.5c-0.3,0-0.5-0.2-0.6-0.5c-0.1-0.3,0.1-0.6,0.5-0.7l3.9-0.8c0.3-0.1,0.6,0.1,0.7,0.5
			c0.1,0.3-0.1,0.6-0.5,0.7l-3.9,0.8C30.8,41.5,30.8,41.5,30.8,41.5z"/>
		<path class="st1" d="M30.4,41.6c-0.3,0-0.5-0.2-0.6-0.5l-0.8-3.9c-0.1-0.3,0.1-0.6,0.5-0.7c0.3-0.1,0.6,0.1,0.7,0.5l0.8,3.9
			c0.1,0.3-0.1,0.6-0.5,0.7C30.5,41.6,30.5,41.6,30.4,41.6z"/>
		<path class="st1" d="M34.1,36.2c-0.2,0-0.4-0.1-0.4-0.3c0-0.2,0.1-0.4,0.3-0.5l2.5-0.5c0.2,0,0.4,0.1,0.5,0.3
			c0,0.2-0.1,0.4-0.3,0.5L34.1,36.2C34.1,36.2,34.1,36.2,34.1,36.2z"/>
		<path class="st1" d="M34.1,36.4c-0.2,0-0.4-0.1-0.4-0.3L33.1,33c0-0.2,0.1-0.4,0.3-0.5c0.2,0,0.4,0.1,0.5,0.3l0.6,3.1
			C34.6,36.2,34.4,36.4,34.1,36.4C34.2,36.4,34.1,36.4,34.1,36.4z"/>
	</g>
	<g>
		<path class="st1" d="M27.3,32.2c-0.2,0-0.4-0.1-0.6-0.2c-0.4-0.3-0.4-0.9-0.1-1.2l10.3-11.9c0.3-0.4,0.9-0.4,1.2-0.1
			c0.4,0.3,0.4,0.9,0.1,1.2L27.9,31.9C27.7,32.1,27.5,32.2,27.3,32.2z"/>
		<path class="st1" d="M29.8,29.3c-0.3,0-0.5-0.2-0.6-0.5c0-0.3,0.2-0.6,0.5-0.6l3-0.2c0.3,0,0.6,0.2,0.6,0.5c0,0.3-0.2,0.6-0.5,0.6
			L29.8,29.3C29.8,29.3,29.8,29.3,29.8,29.3z"/>
		<path class="st1" d="M29.5,29.3c-0.3,0-0.5-0.2-0.6-0.5l-0.2-3c0-0.3,0.2-0.6,0.5-0.6c0.3,0,0.6,0.2,0.6,0.5l0.2,3
			C30.1,29,29.9,29.2,29.5,29.3C29.5,29.3,29.5,29.3,29.5,29.3z"/>
		<path class="st1" d="M33.8,24.5c-0.3,0-0.5-0.2-0.6-0.5c0-0.3,0.2-0.6,0.5-0.6l2.6-0.2c0.3,0,0.6,0.2,0.6,0.5
			c0,0.3-0.2,0.6-0.5,0.6L33.8,24.5C33.8,24.5,33.8,24.5,33.8,24.5z"/>
		<path class="st1" d="M33.8,24.7c-0.3,0-0.5-0.2-0.6-0.5L33,21.1c0-0.3,0.2-0.6,0.5-0.6c0.3,0,0.6,0.2,0.6,0.5l0.2,3.1
			C34.4,24.4,34.1,24.7,33.8,24.7C33.8,24.7,33.8,24.7,33.8,24.7z"/>
	</g>
	<g>
		<path class="st1" d="M26,28.6c-0.2,0-0.5-0.1-0.7-0.3l-9-11.1c-0.3-0.4-0.2-0.9,0.1-1.2c0.4-0.3,0.9-0.2,1.2,0.1l9,11.1
			c0.3,0.4,0.2,0.9-0.1,1.2C26.4,28.5,26.2,28.6,26,28.6z"/>
		<path class="st1" d="M23.8,25.4C23.8,25.4,23.8,25.4,23.8,25.4c-0.4,0-0.6-0.3-0.6-0.6l0.3-3c0-0.3,0.3-0.5,0.6-0.5
			c0.3,0,0.5,0.3,0.5,0.6l-0.3,3C24.4,25.2,24.1,25.4,23.8,25.4z"/>
		<path class="st1" d="M23.8,25.6C23.8,25.6,23.8,25.6,23.8,25.6l-3.1-0.3c-0.3,0-0.5-0.3-0.5-0.6c0-0.3,0.3-0.5,0.6-0.5l3,0.3
			c0.3,0,0.5,0.3,0.5,0.6C24.3,25.4,24.1,25.6,23.8,25.6z"/>
		<path class="st1" d="M19.9,20.4C19.9,20.4,19.8,20.4,19.9,20.4c-0.3,0-0.4-0.2-0.4-0.4l0.3-2.6c0-0.2,0.2-0.4,0.4-0.4
			c0.2,0,0.4,0.2,0.4,0.4l-0.3,2.6C20.3,20.3,20.1,20.4,19.9,20.4z"/>
		<path class="st1" d="M20.1,20.5C20.1,20.5,20.1,20.5,20.1,20.5L17,20.1c-0.2,0-0.4-0.2-0.4-0.4c0-0.2,0.2-0.4,0.4-0.4l3.1,0.3
			c0.2,0,0.4,0.2,0.4,0.4C20.5,20.3,20.3,20.5,20.1,20.5z"/>
	</g>
	<path class="st1" d="M25.3,14.4c-0.1,0-0.3,0-0.4-0.1c-0.2-0.2-0.3-0.6-0.1-0.8l1.2-1.4c0.2-0.2,0.6-0.3,0.8-0.1
		c0.2,0.2,0.3,0.6,0.1,0.8l-1.2,1.4C25.6,14.3,25.4,14.4,25.3,14.4z"/>
	<path class="st1" d="M25.1,12.6c-0.1,0-0.2,0-0.3-0.1c-0.2-0.2-0.2-0.4-0.1-0.6l1.2-1.4c0.2-0.2,0.4-0.2,0.6-0.1
		c0.2,0.2,0.2,0.4,0.1,0.6l-1.2,1.4C25.3,12.6,25.2,12.6,25.1,12.6z"/>
	<path class="st1" d="M25.2,10.6c-0.1,0-0.2,0-0.3-0.1c-0.2-0.2-0.2-0.4-0.1-0.6L26,8.4c0.2-0.2,0.4-0.2,0.6-0.1
		c0.2,0.2,0.2,0.4,0.1,0.6l-1.2,1.4C25.5,10.5,25.3,10.6,25.2,10.6z"/>
	<path class="st1" d="M25.1,8.8c-0.1,0-0.2,0-0.2-0.1c-0.1-0.1-0.2-0.3-0.1-0.5L26,6.8c0.1-0.1,0.3-0.2,0.5-0.1
		c0.1,0.1,0.2,0.3,0.1,0.5l-1.2,1.4C25.3,8.7,25.2,8.8,25.1,8.8z"/>
	<path class="st1" d="M25.1,6.2c0,0-0.1,0-0.1,0C25,6.1,25,6,25,5.9l1.7-2.2c0.1-0.1,0.2-0.1,0.2,0C27,3.8,27,3.9,27,3.9l-1.7,2.2
		C25.2,6.2,25.2,6.2,25.1,6.2z"/>
	<path class="st1" d="M28.5,14.5c-0.2,0-0.3-0.1-0.4-0.2l-1.2-1.4c-0.2-0.2-0.2-0.6,0.1-0.8c0.2-0.2,0.6-0.2,0.8,0.1l1.2,1.4
		c0.2,0.2,0.2,0.6-0.1,0.8C28.7,14.4,28.6,14.5,28.5,14.5z"/>
	<path class="st1" d="M28.6,12.6c-0.1,0-0.3-0.1-0.4-0.2L27.1,11c-0.2-0.2-0.1-0.5,0.1-0.6c0.2-0.2,0.5-0.1,0.6,0.1l1.2,1.4
		c0.2,0.2,0.1,0.5-0.1,0.6C28.8,12.6,28.7,12.6,28.6,12.6z"/>
	<path class="st1" d="M28.5,10.6c-0.1,0-0.3-0.1-0.4-0.2L27,9c-0.2-0.2-0.1-0.5,0.1-0.6c0.2-0.2,0.5-0.1,0.6,0.1l1.2,1.4
		c0.2,0.2,0.1,0.5-0.1,0.6C28.7,10.5,28.6,10.6,28.5,10.6z"/>
	<path class="st1" d="M28.6,8.9c-0.1,0-0.2,0-0.3-0.1l-1.2-1.4c-0.1-0.1-0.1-0.4,0.1-0.5c0.1-0.1,0.4-0.1,0.5,0.1l1.2,1.4
		C29,8.5,29,8.7,28.9,8.8C28.8,8.9,28.7,8.9,28.6,8.9z"/>
	<path class="st1" d="M28.5,6.3c-0.1,0-0.1,0-0.1-0.1l-1.6-2.3c-0.1-0.1,0-0.2,0-0.2c0.1-0.1,0.2,0,0.2,0L28.7,6
		C28.7,6.1,28.7,6.2,28.5,6.3C28.6,6.3,28.6,6.3,28.5,6.3z"/>
	<path class="st1" d="M25.1,7.3c-0.1,0-0.1,0-0.1-0.1c-0.1-0.1-0.1-0.2,0-0.3l1.2-1.4c0.1-0.1,0.2-0.1,0.3,0c0.1,0.1,0.1,0.2,0,0.3
		l-1.2,1.4C25.2,7.3,25.2,7.3,25.1,7.3z"/>
	<path class="st1" d="M28.6,7.3c-0.1,0-0.1,0-0.2-0.1l-1.2-1.4c-0.1-0.1-0.1-0.2,0-0.3c0.1-0.1,0.2-0.1,0.3,0L28.7,7
		c0.1,0.1,0.1,0.2,0,0.3C28.7,7.3,28.6,7.3,28.6,7.3z"/>
	<path class="st1" d="M25.2,5C25.1,5,25.1,5,25.2,5C25,5,25,4.9,25,4.8l1.6-2.4c0.1-0.1,0.2-0.1,0.2,0c0.1,0.1,0.1,0.2,0,0.2L25.3,5
		C25.3,5,25.2,5,25.2,5z"/>
	<path class="st1" d="M28.5,5.1c-0.1,0-0.1,0-0.1-0.1l-1.6-2.5c-0.1-0.1,0-0.2,0-0.2c0.1-0.1,0.2,0,0.2,0l1.6,2.5
		C28.7,4.9,28.7,5,28.5,5.1C28.6,5.1,28.5,5.1,28.5,5.1z"/>
	<ellipse class="st1" cx="26.8" cy="3.1" rx="0.4" ry="0.6"/>
</g>
</svg>
