<svg xmlns="http://www.w3.org/2000/svg" width="50" height="50" viewBox="0 0 50 50">
<defs>
    <style>
      .cls-1 {
        fill: #be0d0d;
        fill-rule: evenodd;
      }
    </style>
  </defs>
  <path id="Bjork" class="cls-1" d="M25.029,5.223a8.65,8.65,0,0,0,.819,2.042,3.224,3.224,0,0,0,2.119,1.424,5.189,5.189,0,0,0,1.493.047,10.65,10.65,0,0,0,.241,4.8,1.21,1.21,0,0,0,1.83.522l1.059-.855a9.235,9.235,0,0,0,1.3,5.176,1.281,1.281,0,0,0,1.878.095l0.578-.76a14.6,14.6,0,0,1-.337,4.416,1.187,1.187,0,0,0,.482,1.187,1.275,1.275,0,0,0,1.3,0l1.445-.95a22.33,22.33,0,0,1-1.4,5.318,1.207,1.207,0,0,0,.241,1.187,1.184,1.184,0,0,0,1.156.332l1.878-.522c-0.963,1.947-2.6,4.084-3.8,6.363A1.184,1.184,0,0,0,38.32,36.7h0.048a13.072,13.072,0,0,1-4.286,2.659c-1.83.522-4.237,0.475-7.9,0.237v-5.84l9-3.134a1.172,1.172,0,0,0,.722-1.425,1.2,1.2,0,0,0-1.445-.712l-8.283,2.849V25.784l5.586-1.994a1.162,1.162,0,0,0,.722-1.472,1.218,1.218,0,0,0-1.541-.665l-4.767,1.709V14.767a1.156,1.156,0,0,0-2.311,0v8.594l-4.767-1.709a1.3,1.3,0,0,0-1.541.9,1.148,1.148,0,0,0,.722,1.235l5.586,1.994v5.555l-8.283-2.9a1.3,1.3,0,0,0-1.541.9,1.137,1.137,0,0,0,.819,1.235l9,3.134v5.84c-3.66.237-6.067,0.285-7.9-.237a10.425,10.425,0,0,1-4.238-2.707A1.361,1.361,0,0,0,12.8,34.948c-1.2-2.279-2.841-4.416-3.8-6.363l1.878,0.522a1.154,1.154,0,0,0,1.156-.332,1.207,1.207,0,0,0,.241-1.187,22.328,22.328,0,0,1-1.4-5.318l1.445,0.95a1.275,1.275,0,0,0,1.3,0,1.122,1.122,0,0,0,.482-1.187,16.211,16.211,0,0,1-.337-4.416l0.578,0.76a1.216,1.216,0,0,0,1.878-.095,10.1,10.1,0,0,0,1.3-5.176l1.059,0.855a1.238,1.238,0,0,0,1.83-.522,10.57,10.57,0,0,0,.241-4.8,5.188,5.188,0,0,0,1.493-.047A3.472,3.472,0,0,0,24.259,7.17,9.661,9.661,0,0,0,25.029,5.223ZM24.981,0a1.125,1.125,0,0,0-1.059.807A42.946,42.946,0,0,1,22.236,6.03a0.77,0.77,0,0,1-.626.427,6.254,6.254,0,0,1-2.167-.143A1.219,1.219,0,0,0,18.095,7.74a9.3,9.3,0,0,1,.289,3.324l-1.3-1.092a1.116,1.116,0,0,0-1.2-.143,1.224,1.224,0,0,0-.674,1.045,22.99,22.99,0,0,1-.385,4.559L13.809,14.15a1.115,1.115,0,0,0-1.156-.38,1.191,1.191,0,0,0-.867.9,18.8,18.8,0,0,0-.289,5.366l-1.4-.9a1.208,1.208,0,0,0-1.2-.047,1.161,1.161,0,0,0-.626,1A19.59,19.59,0,0,0,9.427,26.4l-1.974-.57A1.187,1.187,0,0,0,6.008,27.16c0.53,2.659,2.263,4.986,3.66,7.217H8.9a1.244,1.244,0,0,0-1.059.665,1.168,1.168,0,0,0,.193,1.235c2.649,2.944,4.767,4.558,7.32,5.27,2.311,0.665,4.912.57,8.523,0.332v6.98A1.164,1.164,0,0,0,25.029,50a1.2,1.2,0,0,0,1.156-1.14V41.833c3.612,0.237,6.212.332,8.523-.333,2.6-.712,4.671-2.327,7.32-5.271A1.153,1.153,0,0,0,42.22,35a1.244,1.244,0,0,0-1.059-.665H40.342c1.445-2.232,3.13-4.558,3.66-7.217a1.24,1.24,0,0,0-1.445-1.33l-1.974.57a20.072,20.072,0,0,0,1.156-6.315,1.106,1.106,0,0,0-.626-1,1.208,1.208,0,0,0-1.2.047l-1.4.9a17.206,17.206,0,0,0-.289-5.366,1.125,1.125,0,0,0-1.974-.475l-1.011,1.282a22.99,22.99,0,0,1-.385-4.558,1.137,1.137,0,0,0-.674-1.045,1.116,1.116,0,0,0-1.2.143l-1.348,1.045a9.3,9.3,0,0,1,.289-3.324,1.219,1.219,0,0,0-1.348-1.425A6.255,6.255,0,0,1,28.4,6.41a0.77,0.77,0,0,1-.626-0.427C27.389,5.366,27,3.514,26.089.76A1.16,1.16,0,0,0,24.981,0Z"/>
</svg>
