<svg xmlns="http://www.w3.org/2000/svg" width="50" height="50" viewBox="0 0 50 50">
<defs>
    <style>
      .cls-1 {
        fill: #e64011;
        fill-rule: evenodd;
      }
    </style>
  </defs>
  <path id="Bok" class="cls-1" d="M11.819,38.03A18,18,0,0,0,23.35,43.766L23.1,49.875,25.086,50l0.248-6.11A18.144,18.144,0,0,0,38.106,13.342L25.83,0,12.563,12.344a18.564,18.564,0,0,0-.744,25.686m24.3-22.693a15.234,15.234,0,0,1-.744,21.446,14.285,14.285,0,0,1-9.8,3.99l0.124-3.242,10.664-10.1-1.364-1.5-9.3,8.728,0.248-5.736L33.766,21.7,32.4,20.2l-6.324,5.86,0.248-5.736,4.836-4.489-1.364-1.5L26.45,17.456,26.7,9.85l-1.984-.125-0.248,7.606-3.1-3.367-1.488,1.372L24.342,20.2l-0.248,5.736-5.828-6.359-1.488,1.372L23.97,28.8l-0.248,5.736-8.68-9.352-1.488,1.371L23.6,37.282l-0.124,3.242a15.565,15.565,0,0,1-9.548-4.738,15.234,15.234,0,0,1,.744-21.446L25.706,3.99Z"/>
</svg>
