<svg xmlns="http://www.w3.org/2000/svg" width="50" height="50" viewBox="0 0 50 50">
<defs>
    <style>
      .cls-1 {
        fill: #fbc548;
        fill-rule: evenodd;
      }
    </style>
  </defs>
  <path id="Ek" class="cls-1" d="M35.388,31.335c3.471-2.489,6.942-5.317,6.595-7.806C41.867,22.4,40.942,21.38,39.322,20.7l-0.578-.226a7.551,7.551,0,0,1-1.62-.679l0.116-.113a10.063,10.063,0,0,0,2.893-5.2c0.463-1.584.347-2.715-.232-3.394-0.694-.905-1.967-0.792-3.124-0.792-0.926,0-1.967.113-2.43-.339a1.745,1.745,0,0,1-.463-1.471,3.73,3.73,0,0,0-.926-2.941,3.247,3.247,0,0,0-2.2-.452,1.866,1.866,0,0,1-.81,0,1.608,1.608,0,0,1-.116-0.679A4.474,4.474,0,0,0,25.553,0H25.437a4.474,4.474,0,0,0-4.281,4.412,1.611,1.611,0,0,1-.116.679,1.867,1.867,0,0,1-.81,0,2.306,2.306,0,0,0-2.2.452,3.9,3.9,0,0,0-.926,2.941,1.892,1.892,0,0,1-.463,1.471,3.291,3.291,0,0,1-2.43.339c-1.157,0-2.43-.113-3.124.792-0.579.679-.694,1.81-0.231,3.394,0.81,3.167,2.082,4.525,2.893,5.2L13.867,19.8c-0.347.113-.926,0.453-1.62,0.679l-0.578.226c-1.62.679-2.545,1.584-2.661,2.828-0.347,2.6,3.124,5.43,6.479,7.806,1.736,1.244,1.851,1.923,1.736,2.036a0.941,0.941,0,0,1-.579.566,2.248,2.248,0,0,0-1.62,1.584c-0.231,1.244.926,2.6,3.471,4.186,2.777,1.81,3.471,3.394,3.934,4.751,0.463,1.131.926,2.149,2.43,2.376v2.6a0.614,0.614,0,0,0,.579.566,0.735,0.735,0,0,0,.579-0.566V46.719c1.62-.226,1.967-1.244,2.43-2.376,0.463-1.357,1.157-2.941,3.934-4.751,2.545-1.584,3.587-2.941,3.471-4.186a1.951,1.951,0,0,0-1.5-1.584,1.266,1.266,0,0,1-.578-0.566c-0.116,0-.116-0.679,1.62-1.923M32.38,33.71a2.121,2.121,0,0,0,1.5,1.584,1.356,1.356,0,0,1,.694.566c0,0.226,0,1.131-2.893,2.941a9.059,9.059,0,0,0-4.4,5.43c-0.347,1.018-.579,1.471-1.273,1.584V39.367a15.663,15.663,0,0,1,5.554-2.149,0.625,0.625,0,1,0-.116-1.244A16.538,16.538,0,0,0,26.016,37.9V32.127C26.942,31.109,32.38,25.339,38.859,25a0.625,0.625,0,1,0-.116-1.244c-5.9.339-10.76,4.412-12.959,6.561V22.511c0.926-1.131,6.479-7.353,11.455-8.145a0.5,0.5,0,0,0,.463-0.679,0.509,0.509,0,0,0-.694-0.452c-4.513.679-9.141,5.2-11.223,7.353V12.217c0-1.81,3.24-3.054,4.512-3.394a0.642,0.642,0,0,0,.463-0.792,0.66,0.66,0,0,0-.81-0.452c-0.116,0-3.471.905-4.86,2.715-1.389-1.923-4.628-2.715-4.86-2.715a0.66,0.66,0,0,0-.81.452,0.642,0.642,0,0,0,.463.792c1.273,0.339,4.512,1.471,4.512,3.394v8.371c-2.082-2.262-6.711-6.787-11.223-7.353a0.664,0.664,0,0,0-.694.452,0.651,0.651,0,0,0,.463.679C17.917,15.158,23.47,21.38,24.4,22.511v7.806c-2.083-2.149-6.942-6.222-12.843-6.448a0.625,0.625,0,1,0-.116,1.244c6.479,0.339,11.918,6,12.843,7.127v5.769a15.6,15.6,0,0,0-5.438-1.923,0.625,0.625,0,1,0-.116,1.244A14.75,14.75,0,0,1,24.28,39.48v6.448c-0.694-.113-0.926-0.566-1.273-1.584a10.264,10.264,0,0,0-4.4-5.43c-2.777-1.81-2.893-2.715-2.893-2.941a1.036,1.036,0,0,1,.694-0.566,2.122,2.122,0,0,0,1.5-1.584c0.116-1.018-.578-2.036-2.314-3.281-1.5-1.131-6.248-4.412-6.017-6.674a2.6,2.6,0,0,1,1.967-1.81l0.579-.226c1.967-.792,2.43-1.018,2.546-1.584A1.427,1.427,0,0,0,14.1,19a8.883,8.883,0,0,1-2.545-4.638c-0.347-1.47-.231-2.036,0-2.263,0.347-.452,1.273-0.339,2.083-0.339,1.157,0,2.545.113,3.355-.679A2.984,2.984,0,0,0,17.8,8.71a2.869,2.869,0,0,1,.463-2.036,1.717,1.717,0,0,1,1.157-.113,2.734,2.734,0,0,0,1.851-.339,2.209,2.209,0,0,0,.579-1.584c0-2.6,2.545-3.054,3.008-3.167a3.226,3.226,0,0,1,3.008,3.167,1.865,1.865,0,0,0,.578,1.584,2.621,2.621,0,0,0,1.851.339,1.593,1.593,0,0,1,1.157.113,2.869,2.869,0,0,1,.463,2.036,3.143,3.143,0,0,0,.81,2.376,4.362,4.362,0,0,0,3.355.679,3.437,3.437,0,0,1,2.083.339c0.231,0.226.347,0.792,0,2.263A9.451,9.451,0,0,1,35.619,19a1.2,1.2,0,0,0-.579,1.244c0.116,0.566.579,0.792,2.546,1.584l0.578,0.226a2.824,2.824,0,0,1,1.967,1.81c0.231,2.149-4.512,5.543-6.017,6.674-1.157,1.018-1.851,2.149-1.735,3.168"/>
</svg>
