<svg xmlns="http://www.w3.org/2000/svg" width="50" height="50" viewBox="0 0 50 50">
<defs>
    <style>
      .cls-1 {
        fill: #fbc548;
        fill-rule: evenodd;
      }
    </style>
  </defs>
  <path id="Grabo" class="cls-1" d="M40.629,28.269a2.67,2.67,0,0,0-2.25-1.079c-2.85.617-4.351,0-6.451-2.775,0.9,0,1.5-.154,2.25-0.154,1.8,0.154,3.151-.771,3.3-2.312a2.441,2.441,0,0,0-1.8-2.775c-1.65-.308-2.7.617-3.3,2.158a2.42,2.42,0,0,1-1.35,1.387c-1.5.154-3.151,0-4.951,0,0.9-1.7,1.65-3.083,2.4-4.471,0.9-1.542,1.5-3.392,3.751-3.854,1.65-.308,2.4-2.621,1.95-4.163a2.991,2.991,0,0,0-3.751-2.158,3.831,3.831,0,0,0-2.4,5.4c0.9,2.158-.3,3.238-1.5,4.779a27,27,0,0,1-1.8-6.013c-0.3-1.85-.45-3.854,1.5-5.4,1.5-1.233,1.65-3.238,1.05-5.088A2.625,2.625,0,0,0,23.676.21c-1.8.925-2.85,4.779-1.65,6.321,1.5,1.7.9,3.392,0.45,5.4-1.05-.925-2.25-1.387-2.7-2.313-1.05-2.621-1.95-3.392-4.5-3.083-1.5.154-2.85,0.771-3,2.467a3.868,3.868,0,0,0,2.1,4.317c0.9,0.462,2.4-.154,3.6-0.308,0.45-.154.9-0.771,1.35-0.617,1.65,0,4.2,2.158,4.651,3.854,0.3,1.233.9,2.313,1.2,3.392a1.1,1.1,0,0,1,.15.925c-0.9,1.85-1.95,3.7-3,5.7a0.883,0.883,0,0,1-.6-0.154c-0.15-1.7-.6-3.546-0.3-5.242,0.3-2.158-.3-3.7-2.25-4.317a2.755,2.755,0,0,0-3.6,2,3.459,3.459,0,0,0,2.7,4.317,3.432,3.432,0,0,1,1.5,1.079,2.287,2.287,0,0,0-.3.617,14.8,14.8,0,0,1-2.55.463c-1.65,0-3.3.154-3.9-2.313-0.3-1.387-1.8-1.7-3.151-1.233a3.16,3.16,0,0,0-1.65,4.009,2.5,2.5,0,0,0,3.15,1.541,8.3,8.3,0,0,1,1.8-.617c2.25,0,4.351.308,6.751,0.462,0.9,2.313-.15,6.013-2.7,8.634a53.692,53.692,0,0,1-1.95-5.242,3.011,3.011,0,0,0-4.2-1.7A3.5,3.5,0,0,0,9.424,31.2c-0.15,1.542,1.65,2.467,3.451,2.312,0.45,0,.9-0.154,1.2-0.154,1.8,3.083,2.4,5.859.45,8.942a22.462,22.462,0,0,0-2.1,5.242,12.585,12.585,0,0,0-.45,2.313c0.15,0,.3.154,0.45,0.154a9.871,9.871,0,0,0,1.5-2c0.9-2.467,2.1-4.163,5.1-4.008a34.755,34.755,0,0,0,5.551-.925,4.255,4.255,0,0,0,3.151-3.392,2.69,2.69,0,0,0-2.1-2.929,2.6,2.6,0,0,0-3.3,2c-0.75,3.238-3.3,2.621-5.4,3.392a76.532,76.532,0,0,1,3.6-8.017,3.829,3.829,0,0,1,6.151-.925,3.15,3.15,0,0,0,4.351,0c1.5-1.079,2.1-3.238,1.35-4.471-1.05-2.158-4.2-2.467-5.1-.462-1.05,2.467-2.7,1.85-4.651,1.542,0.6-1.079.9-2,1.5-2.929,0.45-.771.9-1.85,1.5-1.85,1.5-.154,3.45-0.463,4.651.308,2.4,1.542,4.351,3.854,6.6,5.7a3.793,3.793,0,0,0,2.85.463,2.13,2.13,0,0,0,.9-3.238m-11.1-16.5a5.244,5.244,0,0,1,1.8-1.85c0.15-.154,1.05.771,1.95,1.542a17.734,17.734,0,0,1-2.55,1.542,1.907,1.907,0,0,1-1.2-1.233m-12-2a22.851,22.851,0,0,1-1.8,2.158c-0.45-.771-1.05-1.387-1.5-2.158,0.6-.463,1.35-0.925,2.1-1.542a16.871,16.871,0,0,1,1.2,1.542m5.551-4.163c0.45-1.387.9-2.621,1.35-4.008,1.5,2.158,1.05,3.392-1.35,4.008m-5.1,15.725c-0.15-.771-0.3-1.7-0.45-2.467,0.45,0,1.05-.154,1.5-0.154,0.15,0.771.15,1.7,0.3,2.467a4.047,4.047,0,0,0-1.35.154m11.7,7.709c0.3,0.308,1.05.771,0.9,1.079-0.15,1.233-.9,1.85-3,1.7,0.9-1.233,1.5-2,2.1-2.775"/>
</svg>
