<svg xmlns="http://www.w3.org/2000/svg" width="50" height="50" viewBox="0 0 50 50">
<defs>
    <style>
      .cls-1 {
        fill: #fbc548;
        fill-rule: evenodd;
      }
    </style>
  </defs>
  <path id="Gras" class="cls-1" d="M31.248,0.017A28.864,28.864,0,0,0,29.072,4.8c-1.33,3.467-1.814,7.531-2.419,11.6-0.242,2.032-.6,4.064-0.967,6.1a128.479,128.479,0,0,0-.726,26.538c-1.33.358-2.66,0.6-3.99,0.956a153.534,153.534,0,0,1,2.418-27.614,96.532,96.532,0,0,1,2.781-12.313c0.6-1.913,1.209-3.825,1.935-5.5A9.931,9.931,0,0,1,31.248.017M9,24.284a4.555,4.555,0,0,1,1.693,2.271,41.92,41.92,0,0,1,2.66,9.085,57.328,57.328,0,0,1,1.572,14.106H12.868A51.034,51.034,0,0,0,12.022,36,50.505,50.505,0,0,0,9,24.284m5.2-12.91c1.33,0.717,2.177,2.271,2.9,3.706a32.051,32.051,0,0,1,1.693,4.782A29.261,29.261,0,0,1,20,16.394a6.923,6.923,0,0,1,1.814-2.869,70.794,70.794,0,0,0-2.056,7.651,4.2,4.2,0,0,0-.242,1.2,3.012,3.012,0,0,0,.242.837A91.34,91.34,0,0,1,21.937,35.4a81.9,81.9,0,0,1,.484,14.464c-1.209,0-2.418-.119-3.628-0.239,1.33-6.455.967-14.823-.121-21.278a86.687,86.687,0,0,0-1.209,21.278H15.045A114.3,114.3,0,0,1,17.7,25.6c0.121-.478.242-1.076,0.363-1.434,0-.239-0.121-0.6-0.121-0.837a45.9,45.9,0,0,0-1.33-5.858c-0.846-2.152-1.693-4.064-2.418-6.1M27.5,24.045c0-.12.121-0.12,0,0a4.1,4.1,0,0,1,1.693,2.271,18.244,18.244,0,0,1,.967,2.271l0.363-.359a10.454,10.454,0,0,1,7.5-4.184,57.981,57.981,0,0,1,2.539-8.129,4.866,4.866,0,0,1,1.451-2.032c-0.726,2.63-1.693,5.26-2.176,8.009-0.6,2.869-1.088,5.738-1.451,8.726a82.7,82.7,0,0,0-.846,19.126H35.118a119.087,119.087,0,0,1,3.023-25.7c-3.386,1.076-5.562,3.706-7.013,6.933a71.35,71.35,0,0,1,2.66,18.529h-2.3a59.748,59.748,0,0,0-1.33-16.5C28.588,37.553,28.1,43.171,28.1,49.268H24.356c0.363-7.77,1.935-14.465,5.079-19.6A38.45,38.45,0,0,0,27.5,24.045"/>
</svg>
