<svg xmlns="http://www.w3.org/2000/svg" width="50" height="50" viewBox="0 0 50 50">
<defs>
    <style>
      .cls-1 {
        fill: #848484;
        fill-rule: evenodd;
      }
    </style>
  </defs>
  <path id="Hassel" class="cls-1" d="M36.525,36.419c-2.725,2.5-6.813,3.689-11.645,3.451-9.787-.476-15.237-6.308-14.866-15.948C10.262,16.187,14.1,7.38,18.934,3.1A10.474,10.474,0,0,1,26.367,0c8.548,0.357,14.99,14.163,14.618,25.231-0.248,4.88-1.734,8.569-4.46,11.187M20.049,4.166C15.465,8.332,12,16.663,11.625,23.8,11.254,35.11,18.562,37.728,24.88,38.085c4.336,0.238,7.8-.833,10.282-2.975s3.84-5.475,3.84-10C39.374,14.758,33.428,1.905,26.119,1.548c-1.858-.119-3.964.833-6.07,2.618m5.327,45.106-1.487.714c-3.469-6.189-1.486-14.044.743-22.494,2.23-8.926,4.708-18.209.867-26.54l1.61-.6c3.964,8.807,1.487,18.328-.867,27.611-1.982,7.974-3.964,15.591-.867,21.3m2.973-34.633L17.2,7.141l0.991-1.309,10.034,6.784L35.163,6.07,36.4,7.26Zm10.53,0.119L26.862,23.089,12.616,14.282l0.867-1.428,13.379,8.212,11.149-7.617Zm1.487,6.665L25.128,30.231l-14.494-8.45L11.5,20.352l13.627,7.974L39.5,20ZM39.5,31.063l-15.733,4.4L10.882,29.4l0.743-1.428,12.264,5.713L39,29.516Z"/>
</svg>
