<svg xmlns="http://www.w3.org/2000/svg" width="50" height="50" viewBox="0 0 50 50">
<defs>
    <style>
      .cls-1 {
        fill: #f59e20;
        fill-rule: evenodd;
      }
    </style>
  </defs>
  <path id="SalgVide" class="cls-1" d="M21.229,6.425a38.782,38.782,0,0,0-2.579,6.659c0,0.117-.112.234-0.112,0.35a34.066,34.066,0,0,0-.9,16.823,12.743,12.743,0,0,0,.561,2.22,30.466,30.466,0,0,0,6.391,11.448v5.257a0.786,0.786,0,1,0,1.57,0v-5.14a28.467,28.467,0,0,0,6.615-11.565c0.224-.7.336-1.4,0.561-2.22a34.1,34.1,0,0,0-.9-16.822,0.44,0.44,0,0,0-.112-0.35,61.028,61.028,0,0,0-2.579-6.542,0.113,0.113,0,0,0-.112-0.117A53.287,53.287,0,0,0,26.275.467,0.616,0.616,0,0,0,25.6,0a0.762,0.762,0,0,0-.785.7,42.176,42.176,0,0,0-3.139,5.724c-0.337-.117-0.337-0.117-0.449,0m9.531,7.126a14.465,14.465,0,0,1-4.6,8.294V14.836A16.363,16.363,0,0,0,29.19,9.229c0.561,1.4,1.121,2.921,1.57,4.323m1.009,16.355c-1.57,4.556-4.149,6.425-5.606,7.126v-5.14c1.233-.35,4.036-1.636,6.167-5.841-0.112,1.285-.336,2.57-0.56,3.855m-7.176.117c-1.57-.7-4.6-2.8-5.943-8.645a22.619,22.619,0,0,1,.785-4.673,14.466,14.466,0,0,0,5.27,7.126Zm-5.382-.117c-0.224-1.285-.448-2.57-0.561-3.972a10.7,10.7,0,0,0,5.943,5.724V36.8c-1.458-.7-3.924-2.57-5.382-6.892m13.006-8.645c-1.458,6.191-4.709,8.177-6.167,8.762V23.832a15.663,15.663,0,0,0,5.494-7.36,25.965,25.965,0,0,1,.673,4.79m-6.055-9.229V3.271c0.673,1.168,1.345,2.453,1.906,3.622a15.141,15.141,0,0,1-1.906,5.14m-1.57-.35a11.99,11.99,0,0,1-1.682-4.79c0.561-1.051,1.121-2.1,1.682-3.271v8.061Zm0,2.8v7.126a13.825,13.825,0,0,1-4.373-8.178c0.448-1.519,1.009-2.92,1.57-4.322a14.368,14.368,0,0,0,2.8,5.374m-3.027,22.2a15.258,15.258,0,0,0,3.027,1.986v2.687a21.384,21.384,0,0,1-3.027-4.673m4.6,4.907v-2.8A9.122,9.122,0,0,0,29.3,36.8a36.4,36.4,0,0,1-3.139,4.79"/>
</svg>
